<mxfile host="app.diagrams.net" modified="2024-02-07T18:31:40.787Z" agent="Mozilla/5.0 (Macintosh; Intel Mac OS X 10_15_7) AppleWebKit/537.36 (KHTML, like Gecko) Chrome/120.0.0.0 Safari/537.36" etag="TyFgd0ObzAlyI9JQ5gTt" version="23.1.1" type="device">
  <diagram name="Page-1" id="TSITB_I-qgv0edZFgXoW">
    <mxGraphModel dx="794" dy="506" grid="1" gridSize="10" guides="1" tooltips="1" connect="1" arrows="1" fold="1" page="1" pageScale="1" pageWidth="827" pageHeight="1169" math="0" shadow="0">
      <root>
        <mxCell id="0" />
        <mxCell id="1" parent="0" />
        <mxCell id="e7XtCim1SXZW9Be3Q2tL-3" value="POST - SAMLResponse, RelayState" style="text;html=1;strokeColor=none;fillColor=none;align=center;verticalAlign=middle;whiteSpace=wrap;rounded=0;fontFamily=Source Sans 3;fontColor=#CCCCCC;" parent="1" vertex="1">
          <mxGeometry x="60" y="130" width="230" height="30" as="geometry" />
        </mxCell>
        <mxCell id="e7XtCim1SXZW9Be3Q2tL-4" value="GET - code" style="text;html=1;strokeColor=none;fillColor=none;align=center;verticalAlign=middle;whiteSpace=wrap;rounded=0;fontFamily=Source Sans 3;fontColor=#CCCCCC;" parent="1" vertex="1">
          <mxGeometry x="210" y="200" width="80" height="30" as="geometry" />
        </mxCell>
        <mxCell id="e7XtCim1SXZW9Be3Q2tL-5" value="" style="endArrow=block;html=1;rounded=0;endFill=1;fontFamily=Source Sans 3;fontColor=#CCCCCC;strokeColor=#CCCCCC;" parent="1" edge="1">
          <mxGeometry width="50" height="50" relative="1" as="geometry">
            <mxPoint x="300" y="144.5" as="sourcePoint" />
            <mxPoint x="440" y="145" as="targetPoint" />
          </mxGeometry>
        </mxCell>
        <mxCell id="e7XtCim1SXZW9Be3Q2tL-6" value="" style="endArrow=block;html=1;rounded=0;endFill=1;fontFamily=Source Sans 3;fontColor=#CCCCCC;strokeColor=#CCCCCC;" parent="1" edge="1">
          <mxGeometry width="50" height="50" relative="1" as="geometry">
            <mxPoint x="300" y="214.5" as="sourcePoint" />
            <mxPoint x="440" y="214" as="targetPoint" />
          </mxGeometry>
        </mxCell>
        <mxCell id="e7XtCim1SXZW9Be3Q2tL-7" value="/cgi/samlauth" style="text;html=1;strokeColor=none;fillColor=none;align=left;verticalAlign=middle;whiteSpace=wrap;rounded=0;fontFamily=Source Sans 3;fontColor=#CCCCCC;" parent="1" vertex="1">
          <mxGeometry x="450" y="130" width="80" height="30" as="geometry" />
        </mxCell>
        <mxCell id="e7XtCim1SXZW9Be3Q2tL-8" value="/cgi/selfauth" style="text;html=1;strokeColor=none;fillColor=none;align=left;verticalAlign=middle;whiteSpace=wrap;rounded=0;fontFamily=Source Sans 3;fontColor=#CCCCCC;" parent="1" vertex="1">
          <mxGeometry x="450" y="200" width="80" height="30" as="geometry" />
        </mxCell>
        <mxCell id="e7XtCim1SXZW9Be3Q2tL-9" value="1" style="ellipse;whiteSpace=wrap;html=1;aspect=fixed;fillColor=#647687;fontColor=#CCCCCC;strokeColor=#CCCCCC;fontFamily=Source Sans 3;" parent="1" vertex="1">
          <mxGeometry x="557" y="135" width="20" height="20" as="geometry" />
        </mxCell>
        <mxCell id="e7XtCim1SXZW9Be3Q2tL-10" value="2" style="ellipse;whiteSpace=wrap;html=1;aspect=fixed;fillColor=#647687;fontColor=#CCCCCC;strokeColor=#CCCCCC;fontFamily=Source Sans 3;" parent="1" vertex="1">
          <mxGeometry x="557" y="205" width="20" height="20" as="geometry" />
        </mxCell>
        <mxCell id="e7XtCim1SXZW9Be3Q2tL-11" value="Pre-Authentication step" style="text;html=1;align=center;verticalAlign=middle;resizable=0;points=[];autosize=1;strokeColor=none;fillColor=none;fontFamily=Source Sans 3;fontStyle=3;container=1;fontColor=#CCCCCC;" parent="1" vertex="1">
          <mxGeometry x="587" y="130" width="170" height="30" as="geometry" />
        </mxCell>
        <mxCell id="e7XtCim1SXZW9Be3Q2tL-12" value="Authentication Verification step" style="text;html=1;align=center;verticalAlign=middle;resizable=0;points=[];autosize=1;strokeColor=none;fillColor=none;fontFamily=Source Sans 3;fontStyle=3;fontColor=#CCCCCC;" parent="1" vertex="1">
          <mxGeometry x="592" y="200" width="220" height="30" as="geometry" />
        </mxCell>
      </root>
    </mxGraphModel>
  </diagram>
</mxfile>
